<?xml version="1.0" encoding="UTF-8" standalone="no"?>
<svg
   xmlns:dc="http://purl.org/dc/elements/1.1/"
   xmlns:cc="http://creativecommons.org/ns#"
   xmlns:rdf="http://www.w3.org/1999/02/22-rdf-syntax-ns#"
   xmlns:svg="http://www.w3.org/2000/svg"
   xmlns="http://www.w3.org/2000/svg"
   xmlns:xlink="http://www.w3.org/1999/xlink"
   xmlns:sodipodi="http://sodipodi.sourceforge.net/DTD/sodipodi-0.dtd"
   xmlns:inkscape="http://www.inkscape.org/namespaces/inkscape"
   inkscape:export-ydpi="25.309999"
   inkscape:export-xdpi="25.309999"
   inkscape:export-filename="C:\Users\coder0xff\Dropbox\Documents\Projects\Plange\plange_icon.png"
   width="1024"
   height="1024"
   viewBox="0 0 270.93333 270.93333"
   version="1.1"
   id="svg8"
   inkscape:version="1.0beta2 (998e94e, 2020-02-11)"
   sodipodi:docname="plange.svg">
  <defs
     id="defs2">
    <linearGradient
       id="linearGradient4260"
       inkscape:collect="always">
      <stop
         id="stop4256"
         offset="0"
         style="stop-color:#7a5cff;stop-opacity:1" />
      <stop
         id="stop4258"
         offset="1"
         style="stop-color:#7600d1;stop-opacity:1" />
    </linearGradient>
    <linearGradient
       id="linearGradient4167"
       inkscape:collect="always">
      <stop
         id="stop4163"
         offset="0"
         style="stop-color:#ffffff;stop-opacity:1;" />
      <stop
         id="stop4165"
         offset="1"
         style="stop-color:#c0c0c0;stop-opacity:1" />
    </linearGradient>
    <linearGradient
       gradientTransform="matrix(3.7795276,0,0,3.7795276,-24,-24.348221)"
       y2="153.45688"
       x2="158.56258"
       y1="80.170425"
       x1="199.31804"
       gradientUnits="userSpaceOnUse"
       id="linearGradient4249"
       xlink:href="#linearGradient4167"
       inkscape:collect="always" />
    <linearGradient
       gradientTransform="translate(-0.2645874,-9.8817211)"
       gradientUnits="userSpaceOnUse"
       y2="23.749043"
       x2="157.43048"
       y1="263.30362"
       x1="121.23685"
       id="linearGradient4266"
       xlink:href="#linearGradient4260"
       inkscape:collect="always" />
  </defs>
  <sodipodi:namedview
     showborder="false"
     inkscape:document-rotation="0"
     id="base"
     pagecolor="#ffffff"
     bordercolor="#666666"
     borderopacity="1.0"
     inkscape:pageopacity="0.0"
     inkscape:pageshadow="2"
     inkscape:zoom="0.68945312"
     inkscape:cx="512"
     inkscape:cy="512"
     inkscape:document-units="mm"
     inkscape:current-layer="layer3"
     showgrid="false"
     units="px"
     viewbox-width="270.63"
     inkscape:pagecheckerboard="false"
     inkscape:window-width="1500"
     inkscape:window-height="938"
     inkscape:window-x="-6"
     inkscape:window-y="-6"
     inkscape:window-maximized="1" />
  <metadata
     id="metadata5">
    <rdf:RDF>
      <cc:Work
         rdf:about="">
        <dc:format>image/svg+xml</dc:format>
        <dc:type
           rdf:resource="http://purl.org/dc/dcmitype/StillImage" />
        <dc:title></dc:title>
      </cc:Work>
    </rdf:RDF>
  </metadata>
  <g
     style="display:inline"
     inkscape:label="back"
     id="layer3"
     inkscape:groupmode="layer">
    <circle
       id="path3721"
       cx="135.46666"
       cy="135.46666"
       style="fill:url(#linearGradient4266);fill-opacity:1;stroke-width:0.264583"
       r="135.46666" />
  </g>
  <g
     style="opacity:0.99419167"
     inkscape:label="Layer 1"
     inkscape:groupmode="layer"
     id="layer1"
     transform="translate(0,-9.6171338)">
    <g
       transform="translate(1.0583333)"
       id="g4295">
      <path
         inkscape:connector-curvature="0"
         id="path845"
         style="fill:#dbdbdb;fill-opacity:1;stroke:none;stroke-width:4.66016;stroke-linecap:butt;stroke-linejoin:miter;stroke-miterlimit:4;stroke-dasharray:none;stroke-opacity:1"
         d="m 276.24805,244.66797 -73.04297,584.14648 171.26562,-0.64062 73.04492,-583.50586 z m 77.10156,61.57422 c 0.0212,-2e-5 0.0434,-2e-5 0.0645,0 19.54021,6.6e-4 32.92901,19.95462 29.90625,44.57031 -3.02271,24.61504 -21.31171,44.56772 -40.85156,44.56836 -19.54043,4.2e-4 -32.93026,-19.95256 -29.9082,-44.56836 3.01837,-24.58526 21.2676,-44.52664 40.78906,-44.57031 z m -38.84766,316.38672 c 0.0208,-4e-5 0.0439,-4e-5 0.0645,0 19.54042,-4.2e-4 32.9283,19.95256 29.90625,44.56836 -3.02221,24.6164 -21.3127,44.57264 -40.85352,44.57226 -19.54019,-6.4e-4 -32.92898,-19.95658 -29.90625,-44.57226 3.01898,-24.58466 21.26808,-44.52475 40.78906,-44.56836 z"
         transform="matrix(0.26458333,0,0,0.26458333,0,9.6171338)" />
      <path
         id="path4204"
         style="fill:url(#linearGradient4249);fill-opacity:1;stroke:none;stroke-width:4.66016;stroke-linecap:butt;stroke-linejoin:miter;stroke-miterlimit:4;stroke-dasharray:none;stroke-opacity:1"
         d="m 601.45312,172.66406 c -2.27349,0.0128 -4.55794,0.0378 -6.85351,0.0781 l -311.31055,3.84375 -7.59179,72.29687 h 169.26757 120.47071 c 63.15942,1.16474 99.05301,47.34943 91.81836,102.97266 -7.23466,55.62323 -45.42465,101.81436 -117.10547,102.98242 l -76.4961,-0.002 -9.15039,74.52929 h 93.12696 c 173.53149,0 267.47713,-49.64543 281.78711,-177.50976 C 843.50243,225.9891 744.68255,171.856 601.45312,172.66406 Z m 146.3125,133.57813 c 0.0189,-3e-5 0.0437,-3e-5 0.0645,0 19.5397,6.7e-4 32.92821,19.95525 29.90625,44.57031 -3.02215,24.61565 -21.31118,44.56967 -40.85156,44.57031 -19.54088,4.2e-4 -32.931,-19.95391 -29.90821,-44.57031 3.01898,-24.58464 21.26811,-44.52663 40.78906,-44.57031 z"
         transform="matrix(0.26458333,0,0,0.26458333,0,9.6171338)"
         inkscape:connector-curvature="0"
         sodipodi:nodetypes="scccccscccsssscscss" />
    </g>
  </g>
</svg>
